<svg xmlns="http://www.w3.org/2000/svg" xmlns:xlink="http://www.w3.org/1999/xlink" width="288" height="295"><defs><linearGradient id="a" x1="0%" y1="50%" y2="50%"><stop offset="0%" stop-color="#00E1FF" stop-opacity=".233"/><stop offset="100%" stop-color="#00F2FF"/></linearGradient><linearGradient id="b" x1="50%" x2="50%" y1="0%" y2="97.522%"><stop offset="0%" stop-color="#FFE000"/><stop offset="100%" stop-color="#FA0"/></linearGradient><linearGradient id="c" x1="100%" x2="0%" y1="15.45%" y2="83.773%"><stop offset="0%" stop-color="#FF719D"/><stop offset="100%" stop-color="#EB6ED3"/></linearGradient><linearGradient id="d" x1="11.405%" y1="17.055%" y2="86.49%"><stop offset="0%" stop-color="#00F2FF"/><stop offset="100%" stop-color="#00E1FF" stop-opacity=".233"/></linearGradient><linearGradient id="e" x1="0%" y1="69.848%" y2="26.748%"><stop offset="0%" stop-color="#00F2FF"/><stop offset="100%" stop-color="#00E1FF" stop-opacity=".233"/></linearGradient><filter id="f" width="196.3%" height="196.3%" x="-48.1%" y="-35.8%" filterUnits="objectBoundingBox"><feMorphology in="SourceAlpha" operator="dilate" radius=".5" result="shadowSpreadOuter1"/><feOffset dy="20" in="shadowSpreadOuter1" result="shadowOffsetOuter1"/><feGaussianBlur in="shadowOffsetOuter1" result="shadowBlurOuter1" stdDeviation="22.5"/><feComposite in="shadowBlurOuter1" in2="SourceAlpha" operator="out" result="shadowBlurOuter1"/><feColorMatrix in="shadowBlurOuter1" values="0 0 0 0 0 0 0 0 0 0.251536478 0 0 0 0 0.662845335 0 0 0 1 0"/></filter></defs><g fill="none" fill-rule="evenodd"><path fill="url(#a)" d="M220.389 109.8a.941.941 0 01-1.335 0l-3.472-3.473v-7.094a.944.944 0 011.888 0v6.312l2.919 2.92a.943.943 0 010 1.335m-3.863-14.465c-5.166 0-9.353 4.19-9.353 9.354a9.352 9.352 0 009.353 9.353 9.352 9.352 0 009.353-9.353c0-5.165-4.187-9.354-9.353-9.354" transform="translate(29 30)"/><path fill="#FDBC02" d="M66.644 192.649a.76.76 0 01-1.075 0l-2.797-2.797v-5.713a.761.761 0 011.521 0v5.084l2.351 2.351a.76.76 0 010 1.075M63.533 181a7.533 7.533 0 100 15.067 7.533 7.533 0 000-15.067"/><path fill="#EB6ED3" d="M176.192 253.72a1.153 1.153 0 01-1.636 0l-4.254-4.254v-8.691a1.157 1.157 0 112.313 0v7.733l3.577 3.577a1.155 1.155 0 010 1.635M171.459 236C165.13 236 160 241.13 160 247.459s5.13 11.459 11.459 11.459 11.459-5.13 11.459-11.459S177.788 236 171.459 236"/><path fill="url(#b)" d="M97.654 9.86c1-.259 2.022.342 2.282 1.342l9.178 35.379a1.87 1.87 0 11-3.623.94l-9.178-35.379a1.872 1.872 0 011.341-2.282zM135.66 0l-4.029 14.012 10.333 10.285-33.183 8.609-6.304-24.297 33.183-8.61z" transform="translate(29 30)"/><path fill="#FBBB03" d="M253.628 198.905l-10.11 4.2-1.192 10.884-20.601-15.437 11.302-15.083 20.6 15.436zm-23.594-17.679c.621.465.747 1.346.282 1.967l-16.458 21.964a1.406 1.406 0 11-2.249-1.686l16.458-21.964a1.404 1.404 0 011.967-.28z"/><path fill="#EB6ED3" d="M33.942 109l22.9 6.75-4.942 16.768-22.9-6.749 7.427-6.924L33.942 109zm26.228 7.73c.691.204 1.085.93.882 1.62l-7.196 24.415a1.304 1.304 0 01-2.5-.737l7.195-24.416a1.304 1.304 0 011.62-.882z"/><path fill="url(#c)" d="M210.887 41.46l-16.657 3.291-7.968-10.293 7.362-15.301 17.263 22.304zm-26.817-5.306l7.967 10.294-5.147 3.983 6.177 4.14a2.058 2.058 0 11-2.29 3.419l-7.318-4.902-.858.664a6.51 6.51 0 01-9.498-1.688c-1.816-2.874-.936-6.697 1.752-8.777l9.215-7.133zm19.894-10.985l-1.575-.2.602-4.725 1.575.2-.602 4.726zm3.39 2.638l-.972-1.255 3.766-2.915.972 1.255-3.766 2.915zm.532 4.263l.201-1.575 4.723.602-.2 1.575-4.724-.602z" transform="translate(29 30)"/><path fill="url(#d)" d="M19.224 26.39l12.274-15.858 5.235 10.88-5.664 7.318-11.845-2.34zm19.068-3.773l6.552 5.07c1.912 1.48 2.537 4.2 1.246 6.243a4.63 4.63 0 01-6.754 1.2l-.609-.472-5.203 3.485a1.463 1.463 0 11-1.629-2.43l4.392-2.944-3.66-2.833 5.665-7.32zm-14.145-7.81l-.428-3.359 1.12-.143.428 3.358-1.12.143zm-2.41 1.875l-2.679-2.072.691-.893 2.678 2.072-.69.893zm-.379 3.032L18 20.142l-.142-1.12 3.358-.428.143 1.12z" transform="translate(29 30)"/><path fill="url(#e)" d="M51.837 223L37 199.365 54.151 198 61 208.908 51.837 223zM57 196.165l9.917-6.133c2.893-1.79 6.761-1.234 8.784 1.53 2.322 3.17 1.42 7.603-1.82 9.607l-.922.57 1.948 8.709a2.104 2.104 0 01-.936 2.247c-1.194.74-2.75.07-3.06-1.32l-1.645-7.352-5.538 3.426L57 196.165zM39.624 211L35 209.73l.376-1.73L40 209.269 39.624 211zM41 215.418L36.842 218 36 216.583 40.158 214l.842 1.418zm4 1.958L43.73 222l-1.73-.376L43.269 217l1.731.376z" transform="translate(29 30)"/><g transform="translate(-33 -63)"><use fill="#000" filter="url(#f)" xlink:href="#g"/><use fill="#347CF2" stroke="#3481FF" xlink:href="#g"/></g></g></svg>